<?xml version="1.0" standalone="no"?>
<!DOCTYPE svg PUBLIC "-//W3C//DTD SVG 20010904//EN"
 "http://www.w3.org/TR/2001/REC-SVG-20010904/DTD/svg10.dtd">
<svg version="1.0" xmlns="http://www.w3.org/2000/svg"
 width="188.000000pt" height="188.000000pt" viewBox="0 0 188.000000 188.000000"
 preserveAspectRatio="xMidYMid meet">
<metadata>
Created by potrace 1.14, written by Peter Selinger 2001-2017
</metadata>
<g transform="translate(0.000000,188.000000) scale(0.100000,-0.100000)"
fill="#000000" stroke="none">
<path d="M159 1860 c-43 -22 -106 -91 -114 -122 -3 -13 -4 -381 -3 -819 l3
-796 28 -37 c16 -20 45 -48 66 -62 l38 -24 770 2 771 3 39 31 c21 17 48 48 60
70 l23 39 0 787 c0 463 -4 797 -9 811 -15 38 -70 96 -112 118 -37 18 -65 19
-781 19 -709 -1 -745 -2 -779 -20z"/>
</g>
</svg>
